<svg version="1.1" id="Layer_1" xmlns="http://www.w3.org/2000/svg" xmlns:xlink="http://www.w3.org/1999/xlink" x="0px" y="0px"
	 width="100%" viewBox="0 0 512 512" enable-background="new 0 0 512 512" xml:space="preserve">
<path fill="#F6F6F6" opacity="1.000000" stroke="none" 
	d="
M336.000000,513.000000 
	C224.027206,513.000000 112.554405,513.000000 1.040803,513.000000 
	C1.040803,342.402191 1.040803,171.804352 1.040803,1.103257 
	C171.556137,1.103257 342.112366,1.103257 512.834290,1.103257 
	C512.834290,171.666534 512.834290,342.333252 512.834290,513.000000 
	C454.137665,513.000000 395.318817,513.000000 336.000000,513.000000 
M245.523819,384.998566 
	C242.393082,384.998566 239.262344,384.998566 235.567780,384.998566 
	C235.567780,313.726349 235.567780,242.869308 235.567780,172.045761 
	C221.081467,172.045761 207.174759,172.045761 193.347672,172.045761 
	C193.347672,257.396271 193.347672,342.450745 193.347672,427.527924 
	C194.170975,427.629608 194.651733,427.741028 195.132477,427.740997 
	C237.464203,427.738037 279.796204,427.805908 322.127472,427.663086 
	C333.543427,427.624573 344.723236,425.498352 355.048370,420.519775 
	C388.913788,404.190460 406.201019,377.160553 406.235382,339.467865 
	C406.310730,256.804169 406.257568,174.140305 406.246094,91.476517 
	C406.245880,89.865135 406.113831,88.253769 406.041534,86.602913 
	C391.782135,86.602913 377.901459,86.602913 363.745056,86.602913 
	C363.745056,88.949188 363.745056,90.937073 363.745056,92.924950 
	C363.745636,174.922089 363.745605,256.919250 363.747101,338.916382 
	C363.747589,367.138702 345.838074,384.993713 317.513489,384.997864 
	C293.847656,385.001312 270.181793,384.998566 245.523819,384.998566 
M150.254639,211.500137 
	C150.254639,184.070129 150.254639,156.640106 150.254639,129.001022 
	C178.057449,129.001022 205.212708,128.996033 232.367966,129.002396 
	C260.473999,129.008957 278.246399,146.730453 278.250488,174.778458 
	C278.258331,228.773087 278.248718,282.767731 278.246338,336.762360 
	C278.246246,338.505890 278.246307,340.249420 278.246307,341.955200 
	C292.917389,341.955200 306.823608,341.955200 321.000153,341.955200 
	C321.000153,340.853210 321.000244,340.044189 321.000183,339.235168 
	C320.997162,283.074097 321.030701,226.912949 320.927856,170.752060 
	C320.918762,165.785355 320.451721,160.732803 319.466339,155.868210 
	C311.041199,114.275818 276.795135,86.369095 234.034790,86.263382 
	C193.539078,86.163261 153.042908,86.241089 112.546928,86.253136 
	C111.088356,86.253571 109.629814,86.386627 108.080200,86.462318 
	C108.080200,200.307693 108.080200,313.850189 108.080200,427.533875 
	C122.178047,427.533875 135.940338,427.533875 150.254654,427.533875 
	C150.254654,355.708496 150.254654,284.104340 150.254639,211.500137 
z"/>
<path fill="#010101" opacity="1.000000" stroke="none" 
	d="
M246.019897,384.998566 
	C270.181793,384.998566 293.847656,385.001312 317.513489,384.997864 
	C345.838074,384.993713 363.747589,367.138702 363.747101,338.916382 
	C363.745605,256.919250 363.745636,174.922089 363.745056,92.924950 
	C363.745056,90.937073 363.745056,88.949188 363.745056,86.602913 
	C377.901459,86.602913 391.782135,86.602913 406.041534,86.602913 
	C406.113831,88.253769 406.245880,89.865135 406.246094,91.476517 
	C406.257568,174.140305 406.310730,256.804169 406.235382,339.467865 
	C406.201019,377.160553 388.913788,404.190460 355.048370,420.519775 
	C344.723236,425.498352 333.543427,427.624573 322.127472,427.663086 
	C279.796204,427.805908 237.464203,427.738037 195.132477,427.740997 
	C194.651733,427.741028 194.170975,427.629608 193.347672,427.527924 
	C193.347672,342.450745 193.347672,257.396271 193.347672,172.045761 
	C207.174759,172.045761 221.081467,172.045761 235.567780,172.045761 
	C235.567780,242.869308 235.567780,313.726349 235.567780,384.998566 
	C239.262344,384.998566 242.393082,384.998566 246.019897,384.998566 
z"/>
<path fill="#010101" opacity="1.000000" stroke="none" 
	d="
M150.254639,212.000153 
	C150.254654,284.104340 150.254654,355.708496 150.254654,427.533875 
	C135.940338,427.533875 122.178047,427.533875 108.080200,427.533875 
	C108.080200,313.850189 108.080200,200.307693 108.080200,86.462318 
	C109.629814,86.386627 111.088356,86.253571 112.546928,86.253136 
	C153.042908,86.241089 193.539078,86.163261 234.034790,86.263382 
	C276.795135,86.369095 311.041199,114.275818 319.466339,155.868210 
	C320.451721,160.732803 320.918762,165.785355 320.927856,170.752060 
	C321.030701,226.912949 320.997162,283.074097 321.000183,339.235168 
	C321.000244,340.044189 321.000153,340.853210 321.000153,341.955200 
	C306.823608,341.955200 292.917389,341.955200 278.246307,341.955200 
	C278.246307,340.249420 278.246246,338.505890 278.246338,336.762360 
	C278.248718,282.767731 278.258331,228.773087 278.250488,174.778458 
	C278.246399,146.730453 260.473999,129.008957 232.367966,129.002396 
	C205.212708,128.996033 178.057449,129.001022 150.254639,129.001022 
	C150.254639,156.640106 150.254639,184.070129 150.254639,212.000153 
z"/>
</svg>